# xmcd CD database file
#
# Track frame offsets:
#	150
#	20970
#	38232
#
# Disc length: 701 seconds
#
# Revision: 4
# Processed by: cddbd v1.5.2PL0 Copyright (c) Steve Scherf et al.
# Submitted via: CDex 1.40Release
#
DISCID=2202bb03
DTITLE=元ちとせ - 君ヲ想フ
DYEAR=2002
DGENRE=Pop
TTITLE0=君ヲ想フ
TTITLE1=おやすみ
TTITLE2=BLUE
EXTD=YEAR: 2002 ID3G: 13
EXTT0=
EXTT1=
EXTT2=
PLAYORDER=
